<?xml version="1.0" standalone="no"?>
<!DOCTYPE svg PUBLIC "-//W3C//DTD SVG 20010904//EN"
 "http://www.w3.org/TR/2001/REC-SVG-20010904/DTD/svg10.dtd">
<svg version="1.0" xmlns="http://www.w3.org/2000/svg"
 width="690.000000pt" height="690.000000pt" viewBox="0 0 690.000000 690.000000"
 preserveAspectRatio="xMidYMid meet">
<metadata>
Created by potrace 1.14, written by Peter Selinger 2001-2017
</metadata>
<g transform="translate(0.000000,690.000000) scale(0.100000,-0.100000)"
fill="#000000" stroke="none">
<path d="M990 3963 c0 -5 -5 -37 -11 -73 -31 -203 -35 -184 35 -185 l59 -1 27
61 c15 33 41 93 58 133 l31 72 -99 0 c-55 0 -100 -3 -100 -7z"/>
<path d="M2270 3916 c-116 -31 -205 -129 -225 -246 -3 -19 -12 -66 -20 -105
-7 -38 -16 -86 -19 -105 -3 -19 -8 -46 -11 -60 -14 -74 -18 -95 -34 -215 -22
-165 73 -257 259 -251 102 3 178 33 235 93 55 58 83 134 110 303 3 19 17 96
30 171 45 245 39 307 -31 373 -55 51 -190 71 -294 42z m106 -214 c-4 -31 -13
-88 -21 -126 -15 -74 -19 -101 -30 -176 -4 -24 -8 -47 -10 -50 -2 -3 -6 -30
-10 -60 -3 -29 -8 -57 -10 -61 -3 -3 -7 -24 -11 -45 -9 -58 -21 -81 -43 -87
-23 -6 -38 15 -35 48 2 27 71 420 90 514 16 83 34 112 66 103 19 -4 20 -10 14
-60z"/>
<path d="M3970 3916 c-115 -30 -171 -95 -200 -231 -29 -132 -8 -205 77 -271
98 -77 149 -119 160 -133 13 -18 10 -103 -6 -144 -11 -29 -46 -48 -70 -39 -11
4 -12 20 -6 76 4 39 8 82 8 96 l2 25 -105 0 c-58 1 -110 -1 -117 -3 -11 -3
-26 -93 -28 -167 -4 -131 94 -200 272 -191 101 5 189 41 237 98 41 47 70 160
70 269 0 67 -3 82 -27 118 -15 23 -70 73 -122 112 -52 38 -99 77 -104 87 -17
32 -3 105 24 129 44 38 58 21 51 -59 -4 -37 -4 -68 1 -69 59 -6 216 -2 221 6
17 27 25 179 11 209 -36 78 -211 120 -349 82z"/>
<path d="M5245 3917 c-91 -27 -155 -80 -194 -160 -20 -42 -80 -322 -96 -452
-4 -27 -8 -57 -10 -65 -3 -8 -7 -43 -11 -76 -15 -145 82 -234 251 -232 140 2
258 71 302 177 23 55 69 288 109 551 14 95 -4 168 -53 212 -57 51 -201 73
-298 45z m108 -200 c-3 -27 -44 -263 -59 -347 -2 -14 -6 -38 -9 -55 -24 -138
-42 -206 -58 -216 -5 -4 -18 -4 -29 -1 -23 6 -22 28 11 217 6 33 13 71 16 85
3 14 14 79 26 145 11 66 22 130 24 143 8 46 17 64 38 71 31 12 46 -4 40 -42z"/>
<path d="M1308 3815 c-81 -49 -147 -93 -148 -96 0 -4 -30 -55 -66 -115 -36
-60 -68 -123 -71 -140 -5 -28 6 -46 101 -164 58 -73 106 -126 107 -119 0 8 2
21 3 29 2 8 7 51 10 95 14 161 10 146 61 210 50 63 58 70 108 99 l48 28 219 0
218 1 6 31 c11 61 28 218 24 222 -3 2 -110 5 -239 6 l-235 3 -146 -90z"/>
<path d="M2824 3897 c-6 -18 -134 -426 -144 -462 -4 -16 -31 -104 -60 -195
-28 -91 -60 -193 -70 -228 l-19 -63 131 3 131 3 21 79 c22 81 32 92 81 91 19
0 20 -6 17 -88 l-3 -87 126 0 c92 0 127 3 130 13 2 6 6 120 9 252 3 132 9 342
12 468 l6 227 -181 0 c-138 0 -183 -3 -187 -13z m151 -279 c-2 -7 -6 -47 -10
-88 -13 -171 -17 -216 -20 -226 -3 -9 -21 -11 -68 -5 -10 1 -3 38 27 134 13
40 31 100 41 135 10 34 22 62 27 62 4 0 6 -6 3 -12z"/>
<path d="M3369 3888 c0 -13 -3 -32 -5 -43 -3 -11 -6 -31 -9 -45 -2 -14 -18
-104 -35 -200 -17 -96 -33 -191 -36 -210 -3 -19 -7 -41 -10 -49 -2 -8 -7 -30
-10 -50 -3 -20 -9 -58 -14 -86 -5 -27 -12 -63 -15 -80 -2 -16 -11 -63 -18
-102 l-14 -73 203 0 c185 0 203 2 207 18 5 17 10 47 23 127 3 22 8 43 9 46 2
3 -31 5 -73 5 -62 0 -77 2 -75 14 4 28 52 305 73 420 11 63 27 156 36 205 8
50 17 98 20 108 5 16 -5 17 -125 17 -129 0 -131 0 -132 -22z"/>
<path d="M4459 3908 c0 -1 -2 -10 -4 -18 -2 -8 -7 -31 -10 -50 -7 -40 -31
-178 -41 -230 -3 -19 -8 -44 -9 -55 -2 -11 -6 -36 -10 -55 -3 -19 -8 -48 -11
-65 -3 -16 -7 -37 -9 -45 -2 -8 -6 -32 -9 -52 -3 -21 -9 -55 -12 -75 -3 -21
-7 -45 -9 -53 -2 -8 -7 -31 -10 -50 -3 -19 -12 -70 -20 -114 -8 -43 -15 -82
-15 -87 0 -5 56 -9 124 -9 110 0 125 2 130 18 4 14 16 77 30 167 5 29 26 146
32 175 4 24 8 25 75 27 86 2 157 25 192 61 34 35 59 106 71 197 2 11 6 34 10
51 27 121 7 202 -58 237 -37 20 -59 22 -238 25 -109 2 -198 2 -199 0z m281
-183 c22 -27 -23 -214 -52 -216 -7 0 -21 -2 -31 -4 -15 -3 -17 1 -13 23 5 23
11 63 31 179 2 13 6 27 9 32 8 12 42 3 56 -14z"/>
<path d="M5725 3868 c-4 -23 -17 -101 -30 -173 -27 -144 -29 -160 -40 -225 -4
-25 -9 -54 -11 -65 -3 -11 -7 -38 -10 -60 -3 -22 -9 -56 -14 -75 -5 -19 -11
-53 -15 -75 -3 -23 -7 -52 -10 -65 -3 -14 -10 -52 -15 -85 -6 -33 -13 -68 -16
-77 -5 -17 6 -18 124 -18 l129 0 13 73 c7 39 14 83 16 97 3 14 7 36 9 50 3 14
8 39 10 55 23 145 27 155 51 155 42 0 44 -24 14 -195 -15 -88 -31 -177 -35
-198 l-7 -38 118 3 118 3 7 35 c4 19 11 55 14 79 3 25 8 47 9 50 2 3 7 28 10
55 4 27 9 53 12 57 2 4 6 36 8 70 5 80 -13 118 -66 138 -23 9 -23 9 7 20 47
17 58 26 81 59 48 70 65 269 27 320 -46 61 -69 67 -294 70 l-207 4 -7 -44z
m290 -202 c-10 -85 -27 -122 -59 -128 -15 -3 -28 -2 -30 1 -3 4 2 42 10 86 24
135 20 125 55 113 l31 -11 -7 -61z"/>
<path d="M6329 3818 c-9 -51 -15 -95 -13 -97 2 -2 34 -4 71 -5 74 -1 71 2 59
-66 -2 -14 -11 -68 -20 -120 -10 -52 -19 -106 -22 -120 -3 -14 -7 -36 -9 -50
-2 -14 -13 -77 -24 -140 -11 -63 -23 -133 -26 -155 -6 -40 -10 -56 -21 -95 -5
-19 -1 -20 124 -20 l129 0 23 133 c12 72 24 141 26 152 2 11 7 34 9 50 3 17
10 56 16 87 5 32 12 70 15 85 26 149 44 245 49 253 3 5 35 9 70 8 65 -2 77 2
81 25 14 83 24 144 24 155 0 9 -61 12 -273 12 l-273 0 -15 -92z"/>
<path d="M160 3880 c-26 -4 -35 -10 -37 -25 -4 -41 -12 -92 -28 -165 -9 -41
-18 -90 -21 -109 -3 -18 -7 -41 -9 -50 -23 -107 -55 -280 -55 -292 0 -13 37 2
152 61 l152 78 22 121 c11 67 23 124 26 127 3 3 51 5 107 5 91 0 106 -3 144
-26 118 -71 146 -127 116 -238 -13 -52 -85 -124 -161 -164 l-53 -27 -239 -1
-240 0 -3 -31 c-2 -17 -9 -70 -16 -118 -7 -48 -11 -89 -8 -91 3 -1 118 -3 255
-3 182 -1 259 3 287 12 21 8 90 46 152 85 106 66 119 78 187 168 39 53 76 108
82 122 5 14 9 56 9 94 0 59 -6 80 -44 161 -54 114 -91 151 -242 241 l-114 68
-193 1 c-106 1 -209 -1 -228 -4z"/>
<path d="M1615 3480 c-5 -18 -61 -261 -70 -307 l-7 -33 -146 0 c-127 1 -157 4
-217 24 -76 25 -78 24 -89 -34 -11 -60 -14 -73 -29 -132 -14 -53 -14 -58 1
-59 10 -1 184 -3 389 -5 l371 -3 31 132 c17 73 46 198 65 280 l33 147 -136 1
c-75 0 -148 2 -164 3 -17 1 -29 -4 -32 -14z"/>
</g>
</svg>
